<svg width="11" height="18" viewBox="0 0 11 18" fill="none" xmlns="http://www.w3.org/2000/svg">
<path d="M7.44653 8.99619L0.712777 15.7302C0.527363 15.9152 0.425363 16.1625 0.425363 16.4262C0.425363 16.6901 0.527363 16.9373 0.712777 17.1225L1.30282 17.7123C1.48795 17.8979 1.73541 18 1.99912 18C2.26283 18 2.51 17.8979 2.69526 17.7123L10.7129 9.69483C10.8989 9.50898 11.0007 9.26063 11 8.99663C11.0007 8.73146 10.899 8.48341 10.7129 8.29741L2.70273 0.287708C2.51746 0.102147 2.27029 0 2.00644 0C1.74273 0 1.49556 0.102147 1.31014 0.287708L0.720241 0.877464C0.336387 1.26132 0.336387 1.8862 0.720241 2.2699L7.44653 8.99619Z" fill="#2FB2CA"/>
</svg>
