<svg width="20" height="22" viewBox="0 0 20 22" fill="none" xmlns="http://www.w3.org/2000/svg">
<path opacity="0.1" d="M19.577 12.1958C19.5055 12.0245 19.3387 11.9127 19.1536 11.9127H14.1329V0.458195C14.1329 0.205279 13.9276 0 13.6747 0H6.34381C6.09089 0 5.88561 0.205279 5.88561 0.458195V11.9127H0.845642C0.660551 11.9127 0.493759 12.0245 0.422283 12.195C0.351709 12.3663 0.390196 12.5633 0.52125 12.6944L9.66195 21.8653C9.74807 21.9515 9.86448 22 9.98634 22C10.1082 22 10.2246 21.9515 10.3107 21.8662L19.478 12.6953C19.6091 12.5642 19.6485 12.3672 19.577 12.1958Z" fill="#253238"/>
</svg>
