<svg width="11" height="18" viewBox="0 0 11 18" fill="none" xmlns="http://www.w3.org/2000/svg">
<path d="M3.55347 8.99619L10.2872 15.7302C10.4726 15.9152 10.5746 16.1625 10.5746 16.4262C10.5746 16.6901 10.4726 16.9373 10.2872 17.1225L9.69718 17.7123C9.51205 17.8979 9.26459 18 9.00088 18C8.73717 18 8.49 17.8979 8.30474 17.7123L0.287126 9.69483C0.101126 9.50898 -0.000727787 9.26063 3.92068e-06 8.99663C-0.000727787 8.73146 0.10098 8.48341 0.287126 8.29741L8.29727 0.287708C8.48254 0.102147 8.72971 0 8.99356 0C9.25727 0 9.50444 0.102147 9.68986 0.287708L10.2798 0.877464C10.6636 1.26132 10.6636 1.8862 10.2798 2.2699L3.55347 8.99619Z" fill="#4B4B4D"/>
</svg>
