<svg width="9" height="14" viewBox="0 0 9 14" fill="none" xmlns="http://www.w3.org/2000/svg">
<path d="M5.5233 7.00296L0.285935 1.76537C0.141724 1.6215 0.0623902 1.42914 0.0623902 1.22403C0.0623901 1.01881 0.141723 0.82657 0.285935 0.682473L0.744861 0.223774C0.888845 0.0794484 1.08132 6.2995e-07 1.28642 6.12019e-07C1.49153 5.94089e-07 1.68377 0.0794483 1.82787 0.223774L8.06379 6.45958C8.20846 6.60413 8.28767 6.79729 8.28711 7.00262C8.28767 7.20886 8.20857 7.40179 8.06379 7.54646L1.83368 13.7762C1.68958 13.9206 1.49733 14 1.29211 14C1.08701 14 0.894765 13.9206 0.750554 13.7762L0.291741 13.3175C-0.00681218 13.019 -0.00681222 12.533 0.291741 12.2345L5.5233 7.00296Z" fill="#2FB2CA"/>
</svg>
