<svg width="14" height="9" viewBox="0 0 14 9" fill="none" xmlns="http://www.w3.org/2000/svg">
<path d="M7.00296 5.4608L1.76537 0.223437C1.6215 0.0792251 1.42914 -0.000108169 1.22403 -0.00010816C1.01881 -0.000108151 0.826569 0.0792252 0.682472 0.223437L0.223773 0.682363C0.0794474 0.826347 -3.14975e-07 1.01882 -3.0601e-07 1.22392C-2.97044e-07 1.42903 0.0794475 1.62127 0.223773 1.76537L6.45958 8.00129C6.60413 8.14596 6.79729 8.22518 7.00262 8.22461C7.20886 8.22518 7.40179 8.14607 7.54646 8.00129L13.7762 1.77118C13.9206 1.62708 14 1.43483 14 1.22961C14 1.02451 13.9206 0.832265 13.7762 0.688054L13.3175 0.229241C13.019 -0.0693121 12.533 -0.069312 12.2345 0.229241L7.00296 5.4608Z" fill="#253238"/>
</svg>
