<svg width="14" height="9" viewBox="0 0 14 9" fill="none" xmlns="http://www.w3.org/2000/svg">
<path d="M7.00296 5.52352L1.76537 0.28615C1.6215 0.141938 1.42914 0.0626048 1.22403 0.0626048C1.01881 0.0626047 0.82657 0.141938 0.682472 0.28615L0.223773 0.745076C0.0794478 0.889059 8.59282e-08 1.08153 8.34823e-08 1.28664C8.10365e-08 1.49174 0.0794478 1.68399 0.223773 1.82808L6.45958 8.064C6.60413 8.20867 6.79729 8.28789 7.00262 8.28732C7.20886 8.28789 7.40179 8.20878 7.54646 8.064L13.7762 1.83389C13.9206 1.68979 14 1.49755 14 1.29233C14 1.08722 13.9206 0.894979 13.7762 0.750767L13.3175 0.291955C13.019 -0.00659848 12.533 -0.00659849 12.2345 0.291954L7.00296 5.52352Z" fill="white"/>
</svg>
