<svg width="52" height="52" viewBox="0 0 52 52" fill="none" xmlns="http://www.w3.org/2000/svg">
<circle cx="26" cy="26" r="26" fill="#CBECF2"/>
<path d="M34.4853 29.5147C33.1783 28.2077 31.6226 27.2402 29.9253 26.6545C31.7432 25.4024 32.9375 23.3069 32.9375 20.9375C32.9375 17.1122 29.8253 14 26 14C22.1747 14 19.0625 17.1122 19.0625 20.9375C19.0625 23.3069 20.2568 25.4024 22.0748 26.6545C20.3774 27.2402 18.8218 28.2077 17.5147 29.5147C15.2482 31.7812 14 34.7947 14 38H15.875C15.875 32.417 20.417 27.875 26 27.875C31.583 27.875 36.125 32.417 36.125 38H38C38 34.7947 36.7518 31.7812 34.4853 29.5147ZM26 26C23.2085 26 20.9375 23.729 20.9375 20.9375C20.9375 18.146 23.2085 15.875 26 15.875C28.7915 15.875 31.0625 18.146 31.0625 20.9375C31.0625 23.729 28.7915 26 26 26Z" fill="#4B4B4D"/>
</svg>
