<svg width="44" height="44" viewBox="0 0 44 44" fill="none" xmlns="http://www.w3.org/2000/svg">
<path d="M31.625 3.66678H29.3332V1.83322C29.3332 0.821442 28.5138 0 27.5 0C26.4862 0 25.6668 0.821442 25.6668 1.83322V3.66678H11V1.83322C11 0.821442 10.1806 0 9.16678 0C8.15298 0 7.33322 0.821442 7.33322 1.83322V3.66678H5.04178C2.26056 3.66678 0 5.927 0 8.70822V29.3332C0 32.3655 2.46768 34.8332 5.5 34.8332H14.6668C15.6806 34.8332 16.5 34.0121 16.5 33C16.5 31.9879 15.6806 31.1668 14.6668 31.1668H5.5C4.48788 31.1668 3.66678 30.3437 3.66678 29.3332V14.6668H33C33 15.6786 33.8194 16.5 34.8332 16.5C35.847 16.5 36.6668 15.6786 36.6668 14.6668V8.70822C36.6668 5.927 34.4062 3.66678 31.625 3.66678Z" fill="#2FB2CA"/>
<path d="M32.0834 20.1667C25.5129 20.1667 20.167 25.5127 20.167 32.0832C20.167 38.6541 25.5129 44 32.0834 44C38.6543 44 44.0002 38.6541 44.0002 32.0832C44.0002 25.5127 38.6543 20.1667 32.0834 20.1667ZM37.5945 30.0757L31.6363 36.9507C31.3026 37.3358 30.8239 37.5631 30.3163 37.5832C30.2942 37.5832 30.2724 37.5832 30.2502 37.5832C29.7645 37.5832 29.2989 37.3908 28.9541 37.0461L25.7459 33.8379C25.0288 33.1208 25.0288 31.9623 25.7459 31.2456C26.4626 30.5286 27.6211 30.5286 28.3381 31.2456L30.1549 33.0624L34.8227 27.6759C35.4864 26.9095 36.6448 26.8309 37.4095 27.4909C38.1739 28.1526 38.2565 29.3114 37.5945 30.0757Z" fill="white"/>
</svg>
