<svg width="28" height="28" viewBox="0 0 28 28" fill="none" xmlns="http://www.w3.org/2000/svg">
<path d="M25.9505 2.54548H5.09089V2.72809L4.82988 1.83327C4.51542 0.753793 3.51058 0 2.38637 0H0.636384C0.284634 0 0 0.284634 0 0.636384C0 0.988134 0.284634 1.27277 0.636384 1.27277H2.38637C2.94877 1.27277 3.45092 1.6494 3.60812 2.18943L7.56925 15.7699L5.53959 18.3067C5.25 18.669 5.09089 19.1233 5.09089 19.5869C5.09089 20.7173 6.01 21.6364 7.14042 21.6364H24.8182C25.1699 21.6364 25.4546 21.3518 25.4546 21C25.4546 20.6483 25.1699 20.3636 24.8182 20.3636H7.14042C6.71225 20.3636 6.3636 20.015 6.3636 19.5868C6.3636 19.4109 6.42386 19.2382 6.53387 19.1015L8.57892 16.5454H21.0609C22.0421 16.5454 22.9463 15.9718 23.3646 15.0838L27.8055 5.64709C27.9329 5.37553 28 5.07413 28 4.77518V4.59495C28 3.46458 27.0809 2.54548 25.9505 2.54548ZM26.7273 4.77524C26.7273 4.88895 26.7018 5.00331 26.6533 5.10587L22.2131 14.5419C22.0037 14.9857 21.5519 15.2727 21.0609 15.2727H8.75003L5.40888 3.81818H25.9505C26.3786 3.81818 26.7273 4.16683 26.7273 4.59501V4.77524Z" fill="#333333"/>
<path d="M7.63637 22.9091C6.23253 22.9091 5.09089 24.0507 5.09089 25.4546C5.09089 26.8585 6.23247 28.0001 7.63637 28.0001C9.04027 28.0001 10.1818 26.8585 10.1818 25.4546C10.1818 24.0507 9.04021 22.9091 7.63637 22.9091ZM7.63637 26.7273C6.93477 26.7273 6.36366 26.1562 6.36366 25.4546C6.36366 24.753 6.93477 24.1819 7.63637 24.1819C8.33796 24.1819 8.90908 24.753 8.90908 25.4546C8.90908 26.1562 8.33796 26.7273 7.63637 26.7273Z" fill="#333333"/>
<path d="M22.9091 22.9091C21.5053 22.9091 20.3636 24.0507 20.3636 25.4546C20.3636 26.8585 21.5052 28.0001 22.9091 28.0001C24.313 28.0001 25.4546 26.8585 25.4546 25.4546C25.4546 24.0507 24.3129 22.9091 22.9091 22.9091ZM22.9091 26.7273C22.2075 26.7273 21.6364 26.1562 21.6364 25.4546C21.6364 24.753 22.2075 24.1819 22.9091 24.1819C23.6107 24.1819 24.1818 24.753 24.1818 25.4546C24.1818 26.1562 23.6107 26.7273 22.9091 26.7273Z" fill="#333333"/>
</svg>
