<svg width="38" height="44" viewBox="0 0 38 44" fill="none" xmlns="http://www.w3.org/2000/svg">
<path d="M32.3282 13.0978L34.9627 10.4633L32.3703 7.87004L29.552 10.6883C26.9774 8.86378 23.973 7.73929 20.8332 7.425V3.66667H24.4998V0H13.4998V3.66667H17.1665V7.425C14.0266 7.73929 11.0222 8.86378 8.44763 10.6883L5.62934 7.87004L3.03701 10.4633L5.67151 13.0978C3.21237 15.7015 1.56969 18.9685 0.946339 22.4952C0.32299 26.022 0.746271 29.6541 2.16391 32.943C3.58155 36.2319 5.93145 39.0336 8.92343 41.0021C11.9154 42.9705 15.4184 44.0195 18.9998 44.0195C22.5813 44.0195 26.0843 42.9705 29.0762 41.0021C32.0682 39.0336 34.4181 36.2319 35.8358 32.943C37.2534 29.6541 37.6767 26.022 37.0533 22.4952C36.43 18.9685 34.7873 15.7015 32.3282 13.0978ZM18.9998 40.3333C16.099 40.3333 13.2634 39.4732 10.8515 37.8616C8.43956 36.25 6.5597 33.9593 5.44961 31.2794C4.33953 28.5994 4.04908 25.6504 4.61499 22.8053C5.18091 19.9603 6.57777 17.3469 8.62894 15.2958C10.6801 13.2446 13.2935 11.8477 16.1385 11.2818C18.9836 10.7159 21.9325 11.0063 24.6125 12.1164C27.2925 13.2265 29.5831 15.1064 31.1947 17.5183C32.8063 19.9302 33.6665 22.7659 33.6665 25.6667C33.6621 29.5552 32.1155 33.2832 29.3659 36.0327C26.6163 38.7823 22.8883 40.329 18.9998 40.3333Z" fill="#2FB2CA"/>
<path d="M19 14.6665V25.6665H8C8 27.8421 8.64514 29.9688 9.85383 31.7778C11.0625 33.5867 12.7805 34.9966 14.7905 35.8292C16.8005 36.6617 19.0122 36.8796 21.146 36.4551C23.2798 36.0307 25.2398 34.9831 26.7782 33.4447C28.3166 31.9063 29.3642 29.9463 29.7886 27.8125C30.2131 25.6787 29.9952 23.467 29.1627 21.457C28.3301 19.447 26.9202 17.729 25.1113 16.5203C23.3023 15.3116 21.1756 14.6665 19 14.6665Z" fill="white"/>
</svg>
