<svg width="38" height="44" viewBox="0 0 38 44" fill="none" xmlns="http://www.w3.org/2000/svg">
<path d="M32.3283 13.0978L34.9628 10.4633L32.3704 7.87004L29.5522 10.6883C26.9776 8.86378 23.9732 7.73929 20.8333 7.425V3.66667H24.5V0H13.5V3.66667H17.1666V7.425C14.0268 7.73929 11.0224 8.86378 8.44776 10.6883L5.62947 7.87004L3.03713 10.4633L5.67163 13.0978C3.21249 15.7015 1.56981 18.9685 0.946461 22.4952C0.323113 26.022 0.746393 29.6541 2.16403 32.943C3.58167 36.2319 5.93157 39.0336 8.92355 41.0021C11.9155 42.9705 15.4185 44.0195 19 44.0195C22.5814 44.0195 26.0844 42.9705 29.0764 41.0021C32.0683 39.0336 34.4182 36.2319 35.8359 32.943C37.2535 29.6541 37.6768 26.022 37.0535 22.4952C36.4301 18.9685 34.7874 15.7015 32.3283 13.0978ZM19 40.3333C16.0992 40.3333 13.2635 39.4732 10.8516 37.8616C8.43968 36.25 6.55982 33.9593 5.44973 31.2794C4.33965 28.5994 4.0492 25.6504 4.61512 22.8053C5.18103 19.9603 6.5779 17.3469 8.62906 15.2958C10.6802 13.2446 13.2936 11.8477 16.1386 11.2818C18.9837 10.7159 21.9327 11.0063 24.6126 12.1164C27.2926 13.2265 29.5832 15.1064 31.1948 17.5183C32.8064 19.9302 33.6666 22.7659 33.6666 25.6667C33.6622 29.5552 32.1156 33.2832 29.366 36.0327C26.6164 38.7823 22.8885 40.329 19 40.3333Z" fill="#2FB2CA"/>
<path d="M18.9999 14.6666V25.6666H7.99994C7.99994 27.8422 8.64508 29.9689 9.85377 31.7778C11.0625 33.5868 12.7804 34.9967 14.7904 35.8292C16.8004 36.6618 19.0121 36.8796 21.1459 36.4552C23.2797 36.0308 25.2397 34.9831 26.7781 33.4447C28.3165 31.9064 29.3641 29.9464 29.7886 27.8126C30.213 25.6788 29.9952 23.467 29.1626 21.457C28.33 19.4471 26.9202 17.7291 25.1112 16.5204C23.3023 15.3117 21.1755 14.6666 18.9999 14.6666Z" fill="#253238"/>
</svg>
