<svg width="44" height="44" viewBox="0 0 44 44" fill="none" xmlns="http://www.w3.org/2000/svg">
<rect width="44" height="44" fill="#E8E8E8"/>
<rect x="-561" y="-5786" width="1600" height="5880" fill="white"/>
<path d="M-561 -586H1039V94H-561V-586Z" fill="#F5F5F5"/>
<circle cx="22" cy="22" r="22" fill="white"/>
<path d="M31 15.9845C31 14.399 29.601 13 28.0155 13H15.9845C14.399 13 13 14.399 13 15.9845V28.0155C13 29.601 14.399 31 15.9845 31H22.0466V24.1917H19.8083V21.2073H22.0466V19.9948C22.0466 17.943 23.5389 16.171 25.4041 16.171H27.829V19.1554H25.4041C25.1244 19.1554 24.8446 19.4352 24.8446 19.9948V21.2073H27.829V24.1917H24.8446V31H28.0155C29.601 31 31 29.601 31 28.0155V15.9845Z" fill="#253238"/>
</svg>
