<svg width="36" height="38" viewBox="0 0 36 38" fill="none" xmlns="http://www.w3.org/2000/svg">
<path d="M33.6522 14.0869H2.34791C1.91591 14.0869 1.56528 14.4376 1.56528 14.8696V36.7826C1.56528 37.2146 1.91591 37.5652 2.34791 37.5652H33.6523C34.0843 37.5652 34.4349 37.2146 34.4349 36.7826V14.8696C34.4348 14.4376 34.0842 14.0869 33.6522 14.0869ZM32.8696 36H3.13047V15.6521H32.8696L32.8696 36Z" fill="#2FB2CA"/>
<path d="M35.2174 7.82611H0.782633C0.350633 7.82611 0 8.17674 0 8.60874V14.8696C0 15.3016 0.350633 15.6522 0.782633 15.6522H35.2174C35.6494 15.6522 36 15.3016 36 14.8696V8.60874C36 8.17667 35.6494 7.82611 35.2174 7.82611ZM34.4348 14.087H1.56527V9.3913H34.4348V14.087Z" fill="#2FB2CA"/>
<path d="M18 7.82611C17.568 7.82611 17.2174 8.17675 17.2174 8.60874V36.7826C17.2174 37.2146 17.568 37.5653 18 37.5653C18.432 37.5653 18.7827 37.2146 18.7827 36.7826V8.60874C18.7827 8.17667 18.432 7.82611 18 7.82611Z" fill="#2FB2CA"/>
<path d="M18.7999 8.42399C17.9954 4.65023 13.1964 0.601043 9.99867 0.0595027C9.80145 0.0203234 9.59954 0 9.39139 0C7.66493 0 6.26093 1.404 6.26093 3.13046C6.26093 3.85205 6.51295 4.55639 6.96997 5.11518C6.97621 5.11987 6.9809 5.12772 6.9856 5.13396C9.30995 8.10315 17.0468 9.24111 17.9265 9.36158C17.9625 9.36628 17.9984 9.36943 18.0329 9.36943C18.2505 9.36943 18.4571 9.28022 18.6073 9.11902C18.7811 8.93266 18.8531 8.67286 18.7999 8.42399ZM8.19708 4.14002C8.18299 4.1197 8.16736 4.10246 8.15166 4.08521C7.93882 3.81133 7.82612 3.48102 7.82612 3.13046C7.82612 2.26646 8.52893 1.56527 9.39131 1.56527C9.49462 1.56527 9.59638 1.5762 9.71685 1.59813C12.0631 1.99572 15.6052 4.83498 16.8777 7.60541C14.1528 7.10298 9.55258 5.9306 8.19708 4.14002Z" fill="#2FB2CA"/>
<path d="M26.6087 0C26.4006 0 26.1987 0.0203234 26.0233 0.054807C22.8052 0.601043 18.0063 4.65023 17.2018 8.42399C17.1486 8.67286 17.2206 8.93266 17.3943 9.11895C17.543 9.2786 17.7512 9.36936 17.9672 9.36936C18.0016 9.36936 18.0376 9.36621 18.072 9.36312C18.9517 9.24258 26.6885 8.10469 29.0129 5.1355C29.0191 5.12926 29.0238 5.12141 29.0301 5.11518C29.4872 4.55632 29.7392 3.85197 29.7392 3.13046C29.7392 1.404 28.3352 0 26.6087 0ZM27.8484 4.08676C27.8327 4.104 27.817 4.12117 27.803 4.14156C26.4491 5.92906 21.8489 7.10452 19.1222 7.60695C20.3963 4.83336 23.94 1.99565 26.305 1.59498C26.4037 1.5762 26.5054 1.56527 26.6087 1.56527C27.4712 1.56527 28.1739 2.26646 28.1739 3.13046C28.174 3.48102 28.0613 3.80971 27.8484 4.08676Z" fill="#2FB2CA"/>
</svg>
