<svg width="28" height="32" viewBox="0 0 28 32" fill="none" xmlns="http://www.w3.org/2000/svg">
<path d="M27.7176 15.1457C27.7176 13.4048 26.9385 11.8454 25.7144 10.7877C25.4056 4.80915 20.3913 0 14.3525 0C8.32079 0 3.30648 4.80946 2.99766 10.7883C1.7739 11.8457 0.995117 13.4051 0.995117 15.1457C0.995117 18.3239 3.58034 20.9091 6.75792 20.9091C7.16136 20.9091 7.48861 20.5821 7.48861 20.1781L7.48892 10.1139C7.48892 9.91963 7.41211 9.73415 7.27503 9.59706C7.13794 9.45998 6.95183 9.38285 6.75823 9.38285C5.98257 9.38285 5.24345 9.53898 4.5674 9.81783C5.32495 5.10424 9.45306 1.4617 14.3599 1.4617C19.26 1.4617 23.3875 5.10424 24.145 9.81783C23.469 9.53898 22.7301 9.38285 21.9548 9.38285C21.5513 9.38285 21.2241 9.70979 21.2241 10.1139V20.1781C21.2241 20.5821 21.5513 20.9091 21.9548 20.9091C22.7314 20.9091 23.4718 20.7526 24.1484 20.4728C23.5311 24.3411 20.6442 27.544 16.8087 28.5164C16.3684 27.6967 15.4373 27.125 14.3528 27.125C12.8467 27.125 11.6217 28.2185 11.6217 29.5625C11.6217 30.9065 12.8467 32 14.3528 32C15.7052 32 16.8231 31.1157 17.0382 29.9619C21.8973 28.7906 25.4624 24.5101 25.7172 19.5017C26.9397 18.4438 27.7176 16.8853 27.7176 15.1457ZM6.02691 19.3852C4.00252 19.0371 2.45682 17.2684 2.45682 15.1457C2.45682 13.0229 4.00252 11.2549 6.02723 10.9067L6.02691 19.3852ZM14.3528 30.5383C13.653 30.5383 13.0834 30.1005 13.0834 29.5625C13.0834 29.0245 13.653 28.5867 14.3528 28.5867C15.0525 28.5867 15.6218 29.0245 15.6218 29.5625C15.6218 30.1005 15.0525 30.5383 14.3528 30.5383ZM22.6858 10.9067C24.7102 11.2549 26.2559 13.0229 26.2559 15.1457C26.2559 17.2684 24.7102 19.0371 22.6858 19.3852V10.9067Z" fill="#4B4B4D"/>
</svg>
