<svg width="44" height="44" viewBox="0 0 44 44" fill="none" xmlns="http://www.w3.org/2000/svg">
<rect width="44" height="44" fill="#E8E8E8"/>
<rect x="-453" y="-5786" width="1600" height="5880" fill="white"/>
<path d="M-453 -586H1147V94H-453V-586Z" fill="#F5F5F5"/>
<circle cx="22" cy="22" r="22" fill="white"/>
<path d="M28.4385 13H15.5615C14.1077 13 13 14.1077 13 15.5615V28.4385C13 29.8923 14.1077 31 15.5615 31H28.4385C29.8923 31 31 29.8923 31 28.4385V15.5615C31 14.1077 29.8923 13 28.4385 13ZM22 27.4C24.9769 27.4 27.4 25.0462 27.4 22.2077C27.4 21.7231 27.3308 21.1692 27.1923 20.7538H28.7154V28.0923C28.7154 28.4385 28.4385 28.7846 28.0231 28.7846H15.9769C15.6308 28.7846 15.2846 28.5077 15.2846 28.0923V20.6846H16.8769C16.7385 21.1692 16.6692 21.6538 16.6692 22.1385C16.6 25.0462 19.0231 27.4 22 27.4ZM22 25.3231C20.0615 25.3231 18.5385 23.8 18.5385 21.9308C18.5385 20.0615 20.0615 18.5385 22 18.5385C23.9385 18.5385 25.4615 20.0615 25.4615 21.9308C25.4615 23.8692 23.9385 25.3231 22 25.3231ZM28.6462 17.9154C28.6462 18.3308 28.3 18.6769 27.8846 18.6769H25.9462C25.5308 18.6769 25.1846 18.3308 25.1846 17.9154V16.0462C25.1846 15.6308 25.5308 15.2846 25.9462 15.2846H27.8846C28.3 15.2846 28.6462 15.6308 28.6462 16.0462V17.9154Z" fill="#253238"/>
</svg>
