<svg width="44" height="44" viewBox="0 0 44 44" fill="none" xmlns="http://www.w3.org/2000/svg">
<rect width="44" height="44" fill="#E8E8E8"/>
<rect x="-723" y="-5786" width="1600" height="5880" fill="white"/>
<path d="M-723 -586H877V94H-723V-586Z" fill="#F5F5F5"/>
<circle cx="22" cy="22" r="22" fill="white"/>
<path d="M32 23.4933V30.1121H28.1256V23.8969C28.1256 22.3632 27.5605 21.3139 26.1883 21.3139C25.139 21.3139 24.4933 22.0404 24.2511 22.6861C24.1704 22.9283 24.0897 23.2511 24.0897 23.6547V30.1121H20.2152C20.2152 30.1121 20.296 19.6188 20.2152 18.5695H24.0897V20.1839C24.574 19.3767 25.5426 18.2466 27.5605 18.2466C30.0628 18.2466 32 19.9417 32 23.4933ZM16.1794 13C14.8879 13 14 13.8879 14 15.0179C14 16.148 14.8072 17.0359 16.0987 17.0359C17.4709 17.0359 18.278 16.148 18.278 15.0179C18.3587 13.8072 17.5516 13 16.1794 13ZM14.2422 30.1121H18.1166V18.5695H14.2422V30.1121Z" fill="#253238"/>
</svg>
