<svg width="15" height="15" viewBox="0 0 15 15" fill="none" xmlns="http://www.w3.org/2000/svg">
<path d="M12.6152 0.0901348C12.495 -0.0300449 12.2983 -0.0300449 12.1781 0.0901348L7.71854 4.5497C7.59836 4.66988 7.40164 4.66988 7.28146 4.5497L2.82199 0.0901348C2.70181 -0.0300449 2.50509 -0.0300449 2.38491 0.0901348L0.0901348 2.38483C-0.0300449 2.50501 -0.0300449 2.70172 0.0901348 2.8219L4.5497 7.28146C4.66988 7.40164 4.66988 7.59836 4.5497 7.71854L0.0901348 12.1781C-0.0300449 12.2983 -0.0300449 12.495 0.0901348 12.6152L2.38483 14.9099C2.50501 15.03 2.70172 15.03 2.8219 14.9099L7.28146 10.4503C7.40164 10.3301 7.59836 10.3301 7.71854 10.4503L12.178 14.9098C12.2982 15.03 12.4949 15.03 12.6151 14.9098L14.9098 12.6151C15.03 12.4949 15.03 12.2982 14.9098 12.178L10.4503 7.71854C10.3301 7.59836 10.3301 7.40164 10.4503 7.28146L14.9098 2.82199C15.03 2.70181 15.03 2.50509 14.9098 2.38491L12.6152 0.0901348Z" fill="#F04438"/>
</svg>
