<svg width="31" height="31" viewBox="0 0 31 31" fill="none" xmlns="http://www.w3.org/2000/svg">
<path d="M8.62793 16.4688H7.75V18.3457H8.62793C9.14542 18.3457 9.56641 17.9247 9.56641 17.4072C9.56641 16.8897 9.14542 16.4688 8.62793 16.4688Z" fill="white"/>
<path d="M4.54102 26.3984H26.459V31H4.54102V26.3984Z" fill="white"/>
<path d="M26.459 7.26562H19.1934V0H4.54102V10.8984H26.459V7.26562Z" fill="white"/>
<path d="M21.0098 1.28467V5.44939H25.1745L21.0098 1.28467Z" fill="white"/>
<path d="M15.0156 16.4688V21.0703C16.0173 21.0703 16.832 20.2555 16.832 19.2539V18.2852C16.832 17.2835 16.0173 16.4688 15.0156 16.4688Z" fill="white"/>
<path d="M2.42188 12.7148V24.582H28.5781V12.7148H2.42188ZM8.62793 20.1621H7.75V22.8867H5.93359V14.6523H8.62793C10.147 14.6523 11.3828 15.8881 11.3828 17.4072C11.3828 18.9263 10.147 20.1621 8.62793 20.1621ZM18.6484 19.2539C18.6484 21.2572 17.0189 22.8867 15.0156 22.8867H13.1992V14.6523H15.0156C17.0189 14.6523 18.6484 16.2819 18.6484 18.2852V19.2539ZM25.127 16.4688H22.4023V18.5576H24.2188V20.374H22.4023V22.8867H20.5859V14.6523H25.127V16.4688Z" fill="white"/>
</svg>
