<svg width="20" height="24" viewBox="0 0 20 24" fill="none" xmlns="http://www.w3.org/2000/svg">
<path d="M7.30409 11.075C7.172 10.9221 6.99941 10.7943 6.78635 10.691C6.57329 10.5892 6.31069 10.5381 5.99961 10.5381H3.64739V15.1019H5.05415V13.7213H5.88509C6.14503 13.7213 6.38473 13.6882 6.60471 13.6211C6.82364 13.5556 7.0138 13.4549 7.17306 13.3212C7.33233 13.187 7.45643 13.0192 7.54379 12.8163C7.63115 12.6139 7.67482 12.3742 7.67482 12.0967C7.67482 11.9342 7.64606 11.7627 7.58853 11.5784C7.53101 11.3962 7.43673 11.2279 7.30409 11.075ZM6.27873 12.4195C6.23398 12.486 6.17646 12.535 6.10615 12.567C6.03583 12.5984 5.95594 12.6181 5.86645 12.624C5.77696 12.6299 5.68748 12.6336 5.59799 12.6336H5.05468V11.7068H5.68108C5.76631 11.7068 5.8494 11.7099 5.93037 11.7174C6.01133 11.7238 6.08271 11.7414 6.1445 11.7717C6.20629 11.801 6.25529 11.8458 6.29151 11.906C6.3272 11.9651 6.34584 12.0466 6.34584 12.1483C6.34584 12.2634 6.32347 12.3539 6.27873 12.4195Z" fill="#2FB2CA"/>
<path d="M12.0533 11.2444C11.8914 11.0335 11.6799 10.8625 11.4184 10.7325C11.1563 10.6026 10.8346 10.5381 10.4553 10.5381H8.14783V15.1019H10.1805C10.5768 15.1019 10.9219 15.0487 11.2165 14.9416C11.51 14.8356 11.7534 14.6827 11.9441 14.4851C12.1358 14.2864 12.2786 14.0462 12.3734 13.7639C12.4672 13.48 12.514 13.1636 12.514 12.8141C12.514 12.5297 12.4778 12.2479 12.4054 11.9736C12.3324 11.6988 12.2157 11.4559 12.0533 11.2444ZM11.0727 13.1519C11.0492 13.284 11.0018 13.4075 10.932 13.5221C10.8612 13.6376 10.7605 13.7341 10.6284 13.8134C10.4963 13.8928 10.3216 13.9311 10.1048 13.9311H9.55511V11.7073H10.0025C10.2577 11.7073 10.4596 11.7499 10.6066 11.8351C10.7531 11.9203 10.8644 12.0226 10.939 12.1419C11.0135 12.2618 11.0609 12.3811 11.0796 12.5031C11.0988 12.6251 11.1094 12.7215 11.1094 12.7944C11.1078 12.9004 11.0961 13.0198 11.0727 13.1519Z" fill="#2FB2CA"/>
<path d="M13.1207 15.1019H14.5275V13.3639H16.3492V12.2767H14.5275V11.7073H16.6491V10.5381H13.1207V15.1019Z" fill="#2FB2CA"/>
<path d="M15.8075 0H0.758789V24H19.2415V3.32965L15.8075 0ZM17.6435 22.4015H2.35677V1.59798H14.984V4.13343H17.643L17.6435 22.4015Z" fill="#2FB2CA"/>
</svg>
