<svg width="12" height="12" viewBox="0 0 12 12" fill="none" xmlns="http://www.w3.org/2000/svg">
<g clip-path="url(#clip0)">
<path d="M8.93452 2.73179L9.28677 2.29082C9.76948 1.68808 9.67163 0.807458 9.06758 0.324745L9.04541 0.30648C8.44267 -0.176234 7.56205 -0.0783863 7.07934 0.525658L6.72839 0.965319L8.93452 2.73179Z" fill="#2FB2CA"/>
<path d="M6.79106 6.43819C6.8028 6.54516 6.85629 6.64693 6.94631 6.71999C7.12766 6.86481 7.3925 6.8361 7.53731 6.65476L9.9574 3.62801C10.1048 3.44406 10.0722 3.174 9.88304 3.03049C9.70039 2.8922 9.43816 2.93134 9.29465 3.11008L9.05851 3.40492L8.65407 3.08137L8.65538 3.08007L6.45055 1.31229L0.809326 8.36383L3.01546 10.1303L8.13092 3.7376L8.53535 4.06115L6.88108 6.12899C6.80803 6.219 6.77933 6.33121 6.79106 6.43819Z" fill="#2FB2CA"/>
<path d="M2.64885 10.4565L0.570568 8.79176C0.536647 8.90787 0.519687 9.00963 0.519687 9.00963L0.0434968 11.2901C0.00957637 11.4545 0.176569 11.5889 0.329211 11.5184L2.45054 10.553C2.44924 10.553 2.54317 10.5139 2.64885 10.4565Z" fill="#2FB2CA"/>
<path d="M11.6587 10.8648C11.6404 10.8648 11.6235 10.8661 11.6052 10.8687L8.39971 11.2836C8.23532 11.3045 8.12052 11.1245 8.20922 10.9836C8.25749 10.9092 8.30446 10.8335 8.35143 10.7579C8.47537 10.5569 8.30968 10.2895 8.08006 10.2895C8.06441 10.2895 8.04875 10.2908 8.03179 10.2934L3.83088 10.9248L3.3286 11.0005L1.95873 11.2067C1.80348 11.2301 1.69911 11.3619 1.71216 11.5198C1.71738 11.5902 1.74608 11.6568 1.79174 11.7063C1.84523 11.765 1.91959 11.7977 2.00048 11.7977C2.01614 11.7977 2.03179 11.7963 2.04875 11.7937L7.05594 11.041C7.22685 11.0149 7.34427 11.208 7.2438 11.3489C7.21118 11.3932 7.17856 11.4389 7.14595 11.4832C7.05594 11.6059 7.0768 11.8107 7.18117 11.9164C7.23466 11.9712 7.3025 11.9999 7.37426 11.9999C7.3821 11.9999 7.39122 11.9999 7.39905 11.9986H7.40035H7.40167L11.7239 11.448H11.7252H11.7265C11.8009 11.4363 11.8661 11.3932 11.9092 11.3267C11.9562 11.2536 11.9731 11.1636 11.9522 11.0827C11.9183 10.9509 11.8035 10.8648 11.6587 10.8648Z" fill="#2FB2CA"/>
</g>
<defs>
<clipPath id="clip0">
<rect width="12" height="12" fill="white"/>
</clipPath>
</defs>
</svg>
