<svg width="42" height="42" viewBox="0 0 42 42" fill="none" xmlns="http://www.w3.org/2000/svg">
<path d="M22.4 11.2C21.6272 11.2 21 11.8272 21 12.6C21 13.3728 21.6272 14 22.4 14C25.4884 14 28 16.5116 28 19.6C28 20.3728 28.6272 21 29.4 21C30.1728 21 30.8 20.3728 30.8 19.6C30.8 14.9688 27.0312 11.2 22.4 11.2Z" fill="#253238"/>
<path d="M22.4 5.60001C21.6272 5.60001 21 6.22721 21 7.00001C21 7.77281 21.6272 8.40001 22.4 8.40001C28.5768 8.40001 33.6 13.4232 33.6 19.6C33.6 20.3728 34.2272 21 35 21C35.7728 21 36.4 20.3728 36.4 19.6C36.4 11.8804 30.1196 5.60001 22.4 5.60001Z" fill="#253238"/>
<path d="M22.4 0C21.6272 0 21 0.6272 21 1.4C21 2.1728 21.6272 2.8 22.4 2.8C31.6652 2.8 39.2 10.3348 39.2 19.6C39.2 20.3728 39.8272 21 40.6 21C41.3728 21 42 20.3728 42 19.6C42 8.792 33.2052 0 22.4 0Z" fill="#253238"/>
<path d="M37.8 30.8C33.7344 30.8 29.862 29.9152 26.292 28.1708C25.956 28.0028 25.5696 27.9832 25.2196 28.1064C24.8668 28.2296 24.5784 28.4872 24.416 28.8204L22.2152 33.376C16.52 30.198 11.8048 25.4856 8.6296 19.7904L13.1824 17.584C13.5184 17.4216 13.7732 17.1332 13.8964 16.7804C14.0168 16.4304 13.9944 16.044 13.8292 15.708C12.0848 12.138 11.2 8.26559 11.2 4.19999C11.2 3.42719 10.5728 2.79999 9.8 2.79999H1.4C0.6272 2.79999 0 3.42719 0 4.19999C0 25.0432 16.9568 42 37.8 42C38.5728 42 39.2 41.3728 39.2 40.6V32.2C39.2 31.4272 38.5728 30.8 37.8 30.8Z" fill="#2FB2CA"/>
</svg>
