<svg width="28" height="28" viewBox="0 0 28 28" fill="none" xmlns="http://www.w3.org/2000/svg">
<path d="M28 14C28 6.27993 21.7195 -2.74531e-07 14 -6.11959e-07C6.28053 -9.49388e-07 -2.74504e-07 6.27993 -6.11959e-07 14C-9.49414e-07 21.7201 6.28053 28 14 28C21.7195 28 28 21.7201 28 14ZM13.5095 19.5656L8.25951 11.399C8.19744 11.3032 8.16665 11.1927 8.16665 11.0834C8.16665 10.9876 8.1906 10.8908 8.23785 10.8042C8.34039 10.6162 8.53639 10.5 8.75 10.5L19.25 10.5C19.4636 10.5 19.6596 10.6162 19.7621 10.8042C19.8635 10.9888 19.8573 11.2201 19.7405 11.399L14.4905 19.5656C14.3834 19.732 14.1982 19.8334 14 19.8334C13.8018 19.8334 13.6166 19.732 13.5095 19.5656Z" fill="white"/>
</svg>
