<svg width="11" height="6" viewBox="0 0 11 6" fill="none" xmlns="http://www.w3.org/2000/svg">
<path d="M5.71476 4.02585L1.97362 0.284876C1.87086 0.181867 1.73346 0.125201 1.58696 0.125201C1.44037 0.125201 1.30305 0.181867 1.20013 0.284876L0.872484 0.61268C0.769395 0.715526 0.712647 0.853005 0.712647 0.99951C0.712647 1.14601 0.769395 1.28333 0.872484 1.38626L5.32663 5.84049C5.42988 5.94382 5.56785 6.0004 5.71452 6C5.86183 6.0004 5.99964 5.9439 6.10297 5.84049L10.5528 1.3904C10.6559 1.28748 10.7126 1.15016 10.7126 1.00357C10.7126 0.857071 10.6559 0.719754 10.5528 0.616745L10.2252 0.289022C10.0119 0.0757704 9.66476 0.0757704 9.45159 0.289022L5.71476 4.02585Z" fill="#2FB2CA"/>
</svg>
