<svg width="11" height="6" viewBox="0 0 15 9" fill="none" xmlns="http://www.w3.org/2000/svg">
<path d="M7.70969 3.5392L12.9473 8.77656C13.0912 8.92078 13.2835 9.00011 13.4886 9.00011C13.6938 9.00011 13.8861 8.92078 14.0302 8.77656L14.4889 8.31764C14.6332 8.17365 14.7126 7.98118 14.7126 7.77608C14.7126 7.57097 14.6332 7.37873 14.4889 7.23463L8.25307 0.998711C8.10852 0.854044 7.91536 0.774824 7.71003 0.775394C7.50378 0.774824 7.31086 0.85393 7.16619 0.998711L0.936419 7.22882C0.792094 7.37292 0.712647 7.56517 0.712647 7.77039C0.712647 7.97549 0.792094 8.16774 0.936419 8.31195L1.39512 8.77076C1.69367 9.06931 2.17969 9.06931 2.47813 8.77076L7.70969 3.5392Z" fill="#2FB2CA"/>
</svg>
