<svg width="12" height="19" viewBox="0 0 12 19" fill="none" xmlns="http://www.w3.org/2000/svg">
    <path d="M7.73364 9.71645L0.999885 2.9824C0.814471 2.79743 0.712471 2.55011 0.712471 2.2864C0.712471 2.02255 0.814471 1.77538 0.999885 1.59011L1.58993 1.00036C1.77505 0.814795 2.02252 0.712647 2.28623 0.712647C2.54993 0.712647 2.7971 0.814795 2.98237 1.00036L11 9.01782C11.186 9.20367 11.2878 9.45201 11.2871 9.71601C11.2878 9.98118 11.1861 10.2292 11 10.4152L2.98984 18.4249C2.80457 18.6105 2.5574 18.7126 2.29354 18.7126C2.02984 18.7126 1.78267 18.6105 1.59725 18.4249L1.00735 17.8352C0.623496 17.4513 0.623496 16.8265 1.00735 16.4427L7.73364 9.71645Z" fill="#253238"/>
</svg>
