<svg width="28" height="28" viewBox="0 0 28 28" fill="none" xmlns="http://www.w3.org/2000/svg">
<path d="M27.7543 26.5721L20.9499 19.7676C22.7752 17.6692 23.8803 14.9313 23.8803 11.9388C23.8803 5.35166 18.5224 0 11.9415 0C5.35435 0 0.00268555 5.35787 0.00268555 11.9388C0.00268555 18.5197 5.36056 23.8776 11.9415 23.8776C14.9339 23.8776 17.6719 22.7725 19.7703 20.9472L26.5747 27.7517C26.7362 27.9131 26.9535 28 27.1645 28C27.3756 28 27.5929 27.9193 27.7543 27.7517C28.0772 27.4288 28.0772 26.8949 27.7543 26.5721ZM1.67275 11.9388C1.67275 6.27672 6.2794 1.67628 11.9353 1.67628C17.5974 1.67628 22.1978 6.28293 22.1978 11.9388C22.1978 17.5947 17.5974 22.2075 11.9353 22.2075C6.2794 22.2075 1.67275 17.6009 1.67275 11.9388Z" fill="#253238"/>
</svg>
