<svg width="48" height="34" viewBox="0 0 48 34" fill="none" xmlns="http://www.w3.org/2000/svg">
<path d="M18.1674 29.6058C18.1674 31.9595 16.2592 33.8676 13.9056 33.8676C11.5519 33.8676 9.64377 31.9595 9.64377 29.6058C9.64377 27.252 11.5519 25.344 13.9056 25.344C16.2592 25.344 18.1674 27.252 18.1674 29.6058ZM16.0364 29.6058C16.0364 28.4289 15.0824 27.4749 13.9055 27.4749C12.7286 27.4749 11.7745 28.4289 11.7745 29.6058C11.7745 30.7827 12.7286 31.7368 13.9055 31.7368C15.0824 31.7368 16.0364 30.7827 16.0364 29.6058ZM10.2349 25.3439H0.684941C0.306667 25.3439 0 25.6506 0 26.0289V28.1069C0 28.4852 0.306667 28.7918 0.684941 28.7918H8.33969C8.53953 27.4206 9.23169 26.2093 10.2349 25.3439ZM40.4657 29.6058C40.4657 31.9595 38.5576 33.8676 36.2039 33.8676C33.8502 33.8676 31.9421 31.9595 31.9421 29.6058C31.9421 27.252 33.8502 25.344 36.2039 25.344C38.5576 25.3439 40.4657 27.252 40.4657 29.6058ZM38.3349 29.6058C38.3349 28.4289 37.3808 27.4749 36.2039 27.4749C35.027 27.4749 34.073 28.4289 34.073 29.6058C34.073 30.7827 35.0271 31.7368 36.2039 31.7368C37.3808 31.7368 38.3349 30.7827 38.3349 29.6058ZM48 26.0289V28.1069C48 28.4852 47.6933 28.7918 47.3151 28.7918H41.7696C41.373 26.0716 39.0319 23.9741 36.2041 23.9741C33.3757 23.9741 31.0345 26.0717 30.6379 28.7918H19.4715C19.2715 27.4206 18.5795 26.2093 17.5762 25.3439H28.164V5.75249C28.164 4.99595 28.7773 4.38261 29.5339 4.38261H36.0002C37.8209 4.38261 39.5226 5.287 40.5413 6.79594L44.71 12.9701C45.3214 13.8758 45.6482 14.9435 45.6482 16.0363V25.3439H47.3151C47.6933 25.3439 48 25.6506 48 26.0289ZM41.0516 13.1283L37.7182 8.39155C37.5899 8.20928 37.3809 8.10081 37.158 8.10081H31.9584C31.5802 8.10081 31.2735 8.40747 31.2735 8.78575V13.5225C31.2735 13.9008 31.5802 14.2074 31.9584 14.2074H40.4916C41.0464 14.2074 41.371 13.5821 41.0516 13.1283Z" fill="#2FB2CA"/>
<path d="M1 2.05487V22.4771C1 22.8555 1.30659 23.1621 1.68494 23.1621H24.8364C25.2147 23.1621 25.5213 22.8555 25.5213 22.4772V2.05487C25.5213 0.920045 24.6014 4.57764e-05 23.4666 4.57764e-05H3.05482C1.91992 4.57764e-05 1 0.920045 1 2.05487Z" fill="#253238"/>
</svg>
