<svg width="44" height="44" viewBox="0 0 44 44" fill="none" xmlns="http://www.w3.org/2000/svg">
<rect width="44" height="44" fill="#E8E8E8"/>
<rect x="-507" y="-5786" width="1600" height="5880" fill="white"/>
<path d="M-507 -586H1093V94H-507V-586Z" fill="#F5F5F5"/>
<circle cx="22" cy="22" r="22" fill="white"/>
<circle cx="22" cy="22" r="22" fill="#55ACE3"/>
<path d="M32.6 15.9C31.9 16.2 31.1 16.4 30.3 16.5C31.1 16 31.8 15.2 32.1 14.3C31.3 14.8 30.5 15.1 29.5 15.3C28.8 14.5 27.7 14 26.6 14C24.4 14 22.6 15.8 22.6 18C22.6 18.3 22.6 18.6 22.7 18.9C19.4 18.7 16.4 17.1 14.4 14.7C14.1 15.3 13.9 16 13.9 16.7C13.9 18.1 14.6 19.3 15.7 20C15 20 14.4 19.8 13.9 19.5C13.9 21.4 15.3 23.1 17.1 23.4C16.8 23.5 16.4 23.5 16 23.5C15.7 23.5 15.5 23.5 15.2 23.4C15.7 25 17.2 26.2 19 26.2C17.6 27.3 15.9 27.9 14 27.9C13.7 27.9 13.4 27.9 13 27.8C14.8 28.9 16.9 29.6 19.2 29.6C26.6 29.6 30.6 23.5 30.6 18.2V17.7C31.4 17.4 32.1 16.7 32.6 15.9Z" fill="white"/>
</svg>
