<svg width="44" height="44" viewBox="0 0 44 44" fill="none" xmlns="http://www.w3.org/2000/svg">
<rect width="44" height="44" fill="#E8E8E8"/>
<rect x="-669" y="-5786" width="1600" height="5880" fill="white"/>
<path d="M-669 -586H931V94H-669V-586Z" fill="#F5F5F5"/>
<circle cx="22" cy="22" r="22" fill="white"/>
<path d="M29.0805 14.379C26.3072 14.2782 24.4339 15.8682 23.4456 19.1239C23.9539 18.8964 24.4481 18.7948 24.9264 18.7948C25.9422 18.7948 26.3914 19.3756 26.2714 20.5297C26.2114 21.2289 25.7647 22.2455 24.9281 23.583C24.0873 24.9205 23.459 25.5905 23.0406 25.5905C21.7723 25.5905 21.0098 19.5206 20.7515 17.8631C20.3923 15.559 19.4349 14.4815 17.8791 14.6324C16.4508 14.7682 13.9583 17.3398 12 19.0831L12.9408 20.3097C13.8366 19.6748 14.3591 19.3564 14.5083 19.3564C16.0674 19.3564 16.8224 24.6622 18.0332 28.6079C18.8457 30.7854 19.8199 31.8745 20.994 31.8745C22.8806 31.8745 25.1789 30.0879 27.9022 26.513C30.5313 23.0905 31.893 20.3931 31.9805 18.4256L31.9913 18.4173C32.103 15.7798 31.1405 14.4299 29.0805 14.379Z" fill="#253238"/>
</svg>
