<svg width="44" height="44" viewBox="0 0 44 44" fill="none" xmlns="http://www.w3.org/2000/svg">
<rect width="44" height="44" fill="#E8E8E8"/>
<rect x="-615" y="-5786" width="1600" height="5880" fill="white"/>
<path d="M-615 -586H985V94H-615V-586Z" fill="#F5F5F5"/>
<circle cx="22" cy="22" r="22" fill="white"/>
<path d="M30.7131 20.9131C30.7131 20.5252 30.6485 20.0727 30.6485 19.5556C30.5839 19.0384 30.5192 18.5212 30.4545 18.0687C30.3253 17.5515 30.1313 17.1636 29.7434 16.8404C29.4202 16.5172 28.9677 16.3232 28.5152 16.2586C27.0283 16.0646 24.8303 16 21.8566 16C18.8828 16 16.6202 16.0646 15.198 16.2586C14.7455 16.3232 14.2929 16.5172 13.9697 16.8404C13.6465 17.1636 13.3879 17.5515 13.2586 18.0687C13.1293 18.5212 13.0647 18.9737 13.0647 19.5556C13 20.0727 13 20.5252 13 20.9131C13 21.301 13 21.7535 13 22.4C13 23.0465 13 23.5636 13 23.8869C13 24.2747 13.0647 24.7273 13.0647 25.2444C13.1293 25.7616 13.1939 26.2788 13.2586 26.7313C13.3879 27.2485 13.5818 27.6364 13.9697 27.9596C14.2929 28.2828 14.7455 28.4768 15.198 28.5414C16.6848 28.7354 18.8828 28.8 21.8566 28.8C24.8303 28.8 27.0929 28.7354 28.5152 28.5414C28.9677 28.4768 29.4202 28.2828 29.7434 27.9596C30.0667 27.6364 30.3253 27.2485 30.4545 26.7313C30.5838 26.2788 30.6485 25.8263 30.6485 25.2444C30.7131 24.7273 30.7131 24.2747 30.7131 23.8869C30.7131 23.499 30.7131 23.0465 30.7131 22.4C30.7131 21.7535 30.7131 21.2364 30.7131 20.9131ZM25.2828 22.9172L20.1758 26.0848C20.1111 26.1495 19.9818 26.2141 19.8525 26.2141C19.7232 26.2141 19.6586 26.2141 19.5293 26.1495C19.3354 26.0202 19.2061 25.8263 19.2061 25.5677V19.1677C19.2061 18.9091 19.3354 18.7152 19.5293 18.5859C19.7232 18.4566 19.9818 18.4566 20.1758 18.5859L25.2828 21.7535C25.4768 21.8828 25.6061 22.0768 25.6061 22.2707C25.6061 22.4646 25.4768 22.7879 25.2828 22.9172Z" fill="#253238"/>
</svg>
